<svg xmlns="http://www.w3.org/2000/svg" width="195" height="59" viewBox="0 0 195 59" fill="none"><path d="M34.9895 13.1875L22.1606 29.4678L34.9895 45.7266L45.437 59H68.6919L69.8718 57.4965L47.7968 29.4678L69.8718 1.43902L68.7563 0H45.3726L34.9895 13.1875Z" fill="#0099FF"></path><path d="M0 1.43902L22.075 29.4678L0 57.4965L1.17991 59H24.4348L34.8823 45.7266L47.7112 29.4678L34.8823 13.1875L24.4992 0H1.11555L0 1.43902Z" fill="white"></path><path d="M34.8109 13.1509L22.0469 29.3961L34.8109 45.6412L47.575 29.3961L34.8109 13.1509Z" fill="#A3DBFF"></path><path d="M22.0748 29.4678L34.9251 45.6836L18.4922 34.0211L22.0748 29.4678Z" fill="#0099FF"></path><path d="M80.7915 10.9106H88.1284C92.3117 10.9106 95.8943 12.3497 95.8943 17.1822C95.8943 21.8644 92.3117 23.8189 88.1284 23.8189H85.9187V30.3267H80.7915V10.9106ZM87.7851 19.7596C89.8232 19.7596 90.8958 18.8575 90.8958 17.1822C90.8958 15.5069 89.8232 14.97 87.7851 14.97H85.9402V19.7596H87.7851ZM87.2059 22.4873L90.6598 19.0723L96.967 30.3267H91.239L87.2059 22.4873Z" fill="white"></path><path d="M98.7686 20.5329C98.7686 14.1325 102.416 10.5457 107.779 10.5457C113.142 10.5457 116.789 14.154 116.789 20.5329C116.789 26.9119 113.142 30.692 107.779 30.692C102.416 30.692 98.7686 26.9333 98.7686 20.5329ZM111.533 20.5329C111.533 17.0105 110.096 14.9701 107.779 14.9701C105.462 14.9701 104.025 17.0105 104.025 20.5329C104.025 24.0553 105.462 26.2675 107.779 26.2675C110.096 26.2675 111.533 24.0553 111.533 20.5329Z" fill="white"></path><path d="M122.753 20.361L117.797 10.9106H123.525L124.834 14.0894C125.263 14.9915 125.671 16.0654 126.207 17.3111H126.314C126.743 16.0439 127.151 14.97 127.516 14.0894L128.653 10.9106H134.166L129.21 20.5972L134.466 30.3482H128.738L127.194 26.8903C126.722 25.8808 126.293 24.8498 125.821 23.6686H125.692C125.285 24.8713 124.855 25.8808 124.448 26.8903L123.032 30.3697H117.54L122.753 20.361Z" fill="white"></path><path d="M136.912 10.9106H142.039V30.3267H136.912V10.9106Z" fill="white"></path><path d="M146.352 10.9106H151.479V26.0311H158.816V30.3267H146.33V10.9106H146.352Z" fill="white"></path><path d="M162.162 10.9106H174.691V15.2062H167.289V18.2561H173.618V22.5517H167.289V26.0097H174.991V30.3053H162.162V10.9106Z" fill="white"></path><path d="M178.767 10.9106H186.103C190.287 10.9106 193.869 12.3497 193.869 17.1822C193.869 21.8644 190.287 23.8189 186.103 23.8189H183.894V30.3267H178.767V10.9106ZM185.739 19.7596C187.777 19.7596 188.849 18.8575 188.849 17.1822C188.849 15.5069 187.777 14.97 185.739 14.97H183.894V19.7596H185.739ZM185.181 22.4873L188.635 19.0723L194.942 30.3267H189.214L185.181 22.4873Z" fill="white"></path><path d="M81.6493 45.4687C82.014 45.8553 82.443 46.1775 82.9364 46.4138C83.4298 46.65 83.9447 46.7574 84.481 46.7574C85.1675 46.7574 85.6824 46.6071 86.0685 46.2849C86.4547 45.9842 86.6263 45.5761 86.6263 45.0606C86.6263 44.8029 86.5834 44.5667 86.4976 44.3948C86.4118 44.2015 86.2831 44.0512 86.1329 43.9223C85.9827 43.7934 85.8111 43.6646 85.5966 43.5787C85.3821 43.4713 85.1675 43.3639 84.9315 43.2565L83.4513 42.6122C83.2153 42.5048 82.9579 42.3759 82.7219 42.2256C82.4645 42.0752 82.2499 41.9034 82.0569 41.6886C81.8638 41.4738 81.6922 41.2376 81.5634 40.9369C81.4347 40.6577 81.3704 40.314 81.3704 39.9489C81.3704 39.5623 81.4562 39.1972 81.6063 38.875C81.778 38.5313 81.9925 38.2521 82.2714 37.9944C82.5503 37.7581 82.8935 37.5648 83.3011 37.4145C83.6873 37.2856 84.1163 37.1997 84.5883 37.1997C85.2104 37.1997 85.7682 37.3071 86.3045 37.5434C86.8194 37.7796 87.2699 38.0803 87.6346 38.4669L86.9267 39.3045C86.6049 39.0039 86.2616 38.7676 85.8755 38.5958C85.4893 38.424 85.0603 38.338 84.5883 38.338C84.0091 38.338 83.5586 38.4669 83.1939 38.7461C82.8506 39.0039 82.679 39.3905 82.679 39.863C82.679 40.1207 82.7219 40.3355 82.8292 40.5073C82.9364 40.6791 83.0651 40.8295 83.2368 40.9584C83.4084 41.0872 83.58 41.1946 83.7945 41.302C83.9876 41.4094 84.2021 41.4953 84.4167 41.5812L85.8755 42.2041C86.1758 42.3329 86.4547 42.4833 86.7121 42.6336C86.9696 42.8055 87.2055 42.9773 87.3772 43.1921C87.5702 43.4068 87.7204 43.6646 87.8277 43.9438C87.9349 44.223 87.9993 44.5667 87.9993 44.9318C87.9993 45.3399 87.9135 45.7265 87.7633 46.0701C87.5917 46.4352 87.3772 46.7359 87.0554 46.9937C86.755 47.2514 86.3903 47.4662 85.9613 47.6165C85.5322 47.7669 85.0388 47.8528 84.5025 47.8528C83.7731 47.8528 83.1081 47.7239 82.4859 47.4447C81.8638 47.1655 81.3275 46.8004 80.877 46.3278L81.6493 45.4687Z" fill="white"></path><path d="M91.5389 43.7288L88.4497 37.4143H89.8441L91.1742 40.3138C91.3458 40.7004 91.496 41.0656 91.6676 41.4307C91.8178 41.7958 91.9894 42.1824 92.1611 42.569H92.2254C92.397 42.1824 92.5901 41.7958 92.7617 41.4307C92.9334 41.0656 93.105 40.7004 93.2551 40.3138L94.5638 37.4143H95.9368L92.8475 43.7288V47.7237H91.5389V43.7288Z" fill="white"></path><path d="M97.138 45.4687C97.5027 45.8553 97.9318 46.1775 98.4252 46.4138C98.9186 46.65 99.4335 46.7574 99.9698 46.7574C100.656 46.7574 101.171 46.6071 101.557 46.2849C101.943 45.9627 102.115 45.5761 102.115 45.0606C102.115 44.8029 102.072 44.5667 101.986 44.3948C101.901 44.2015 101.772 44.0512 101.622 43.9223C101.472 43.7934 101.3 43.6646 101.085 43.5787C100.871 43.4713 100.656 43.3639 100.42 43.2565L98.9401 42.6122C98.7041 42.5048 98.4467 42.3759 98.2107 42.2256C97.9532 42.0752 97.7387 41.9034 97.5456 41.6886C97.3526 41.4738 97.1809 41.2376 97.0522 40.9369C96.9235 40.6577 96.8591 40.314 96.8591 39.9489C96.8591 39.5623 96.945 39.1972 97.0951 38.875C97.2667 38.5313 97.4813 38.2521 97.7602 37.9944C98.039 37.7581 98.3823 37.5648 98.7899 37.4145C99.176 37.2856 99.6051 37.1997 100.077 37.1997C100.699 37.1997 101.257 37.3071 101.793 37.5434C102.308 37.7796 102.759 38.0803 103.123 38.4669L102.415 39.3045C102.094 39.0039 101.75 38.7676 101.364 38.5958C100.978 38.424 100.549 38.338 100.077 38.338C99.4978 38.338 99.0473 38.4669 98.6826 38.7461C98.3394 39.0039 98.1678 39.3905 98.1678 39.863C98.1678 40.1207 98.2107 40.3355 98.3179 40.5073C98.4252 40.6791 98.5539 40.8295 98.7255 40.9584C98.8972 41.0872 99.0688 41.1946 99.2833 41.302C99.4764 41.4094 99.6909 41.4953 99.9054 41.5812L101.364 42.2041C101.665 42.3329 101.943 42.4833 102.201 42.6336C102.458 42.8055 102.694 42.9773 102.866 43.1921C103.059 43.4068 103.209 43.6646 103.316 43.9438C103.424 44.223 103.488 44.5667 103.488 44.9318C103.488 45.3399 103.402 45.7265 103.252 46.0701C103.08 46.4352 102.866 46.7359 102.544 46.9937C102.244 47.2514 101.879 47.4662 101.45 47.6165C101.021 47.7669 100.528 47.8528 99.9913 47.8528C99.2619 47.8528 98.5968 47.7239 97.9747 47.4447C97.3526 47.1655 96.8162 46.8004 96.3657 46.3278L97.138 45.4687Z" fill="white"></path><path d="M107.285 38.5097H104.175V37.4143H111.705V38.5097H108.594V47.7023H107.285V38.5097Z" fill="white"></path><path d="M113.571 37.4143H119.492V38.5097H114.858V41.7529H118.763V42.8697H114.858V46.6069H119.642V47.7237H113.571V37.4143Z" fill="white"></path><path d="M121.831 37.4143H123.375L125.37 42.9556L126.121 45.0605H126.185L126.915 42.9556L128.889 37.4358H130.433V47.7452H129.189V42.075C129.189 41.624 129.21 41.1085 129.253 40.5501C129.296 39.9917 129.339 39.4977 129.361 39.0252H129.296L128.46 41.3233L126.486 46.7143H125.756L123.761 41.3233L122.946 39.0252H122.882C122.903 39.4762 122.946 39.9917 122.989 40.5501C123.032 41.1085 123.053 41.6025 123.053 42.075V47.7452H121.852V37.4143H121.831Z" fill="white"></path><path d="M133.265 45.4687C133.63 45.8553 134.059 46.1775 134.552 46.4138C135.046 46.65 135.56 46.7574 136.097 46.7574C136.783 46.7574 137.298 46.6071 137.684 46.2849C138.07 45.9627 138.242 45.5761 138.242 45.0606C138.242 44.8029 138.199 44.5667 138.113 44.3948C138.028 44.2015 137.899 44.0512 137.749 43.9223C137.598 43.7934 137.427 43.6646 137.212 43.5787C136.998 43.4713 136.783 43.3639 136.547 43.2565L135.067 42.6122C134.831 42.5048 134.574 42.3759 134.338 42.2256C134.08 42.0752 133.866 41.9034 133.673 41.6886C133.48 41.4738 133.308 41.2376 133.179 40.9369C133.05 40.6577 132.986 40.314 132.986 39.9489C132.986 39.5623 133.072 39.1972 133.222 38.875C133.394 38.5313 133.608 38.2521 133.887 37.9944C134.166 37.7581 134.509 37.5648 134.917 37.4145C135.303 37.2856 135.732 37.1997 136.204 37.1997C136.826 37.1997 137.384 37.3071 137.92 37.5434C138.435 37.7796 138.886 38.0803 139.25 38.4669L138.542 39.3045C138.221 39.0039 137.877 38.7676 137.491 38.5958C137.105 38.424 136.676 38.338 136.204 38.338C135.625 38.338 135.174 38.4669 134.81 38.7461C134.466 39.0039 134.295 39.3905 134.295 39.863C134.295 40.1207 134.338 40.3355 134.445 40.5073C134.552 40.6791 134.681 40.8295 134.852 40.9584C135.024 41.0872 135.196 41.1946 135.41 41.302C135.603 41.4094 135.818 41.4953 136.032 41.5812L137.491 42.2041C137.792 42.3329 138.07 42.4833 138.328 42.6336C138.585 42.8055 138.821 42.9773 138.993 43.1921C139.186 43.4068 139.336 43.6646 139.443 43.9438C139.551 44.223 139.615 44.5667 139.615 44.9318C139.615 45.3399 139.529 45.7265 139.379 46.0701C139.207 46.4352 138.993 46.7359 138.671 46.9937C138.371 47.2514 138.006 47.4662 137.577 47.6165C137.148 47.7669 136.655 47.8528 136.118 47.8528C135.389 47.8528 134.724 47.7239 134.102 47.4447C133.48 47.1655 132.943 46.8004 132.493 46.3278L133.265 45.4687Z" fill="white"></path></svg>